<?xml version="1.0" encoding="utf-8"?>
<!-- Generator: Adobe Illustrator 27.5.0, SVG Export Plug-In . SVG Version: 6.00 Build 0)  -->
<svg version="1.1" id="Layer_1" xmlns="http://www.w3.org/2000/svg" xmlns:xlink="http://www.w3.org/1999/xlink" x="0px" y="0px"
	 viewBox="0 0 5000 2916" style="enable-background:new 0 0 5000 2916;" xml:space="preserve">
<g>
	<g>
		<defs>
			<rect id="SVGID_1_" y="0.002" width="4999.999" height="2915.999"/>
		</defs>
		<clipPath id="SVGID_00000012465297963016148860000013211273703288604571_">
			<use xlink:href="#SVGID_1_"  style="overflow:visible;"/>
		</clipPath>
		
			<linearGradient id="SVGID_00000010296370915438251320000011776963124015292305_" gradientUnits="userSpaceOnUse" x1="2405.0029" y1="-719.2448" x2="2548.8596" y2="2577.8401">
			<stop  offset="0" style="stop-color:#FFFFFF"/>
			<stop  offset="1" style="stop-color:#D3E4E5"/>
		</linearGradient>
		
			<rect y="0.002" style="clip-path:url(#SVGID_00000012465297963016148860000013211273703288604571_);fill:url(#SVGID_00000010296370915438251320000011776963124015292305_);" width="4999.999" height="2915.999"/>
	</g>
	<defs>
		<filter id="Adobe_OpacityMaskFilter" filterUnits="userSpaceOnUse" x="1375.239" y="2499.027" width="2249.523" height="416.973">
			<feColorMatrix  type="matrix" values="1 0 0 0 0  0 1 0 0 0  0 0 1 0 0  0 0 0 1 0"/>
		</filter>
	</defs>
	
		<mask maskUnits="userSpaceOnUse" x="1375.239" y="2499.027" width="2249.523" height="416.973" id="SVGID_00000139997943194875428260000009173552466246762157_">
		<g style="filter:url(#Adobe_OpacityMaskFilter);">
			
				<linearGradient id="SVGID_00000067217941228948989450000000104356919808572293_" gradientUnits="userSpaceOnUse" x1="-165.0967" y1="2169.6633" x2="-165.0967" y2="3307.8176" gradientTransform="matrix(1 0 0 1 2665.0967 0)">
				<stop  offset="0" style="stop-color:#FFFFFF"/>
				<stop  offset="1" style="stop-color:#000000"/>
			</linearGradient>
			
				<rect x="1375.239" y="2499.027" style="fill:url(#SVGID_00000067217941228948989450000000104356919808572293_);" width="2249.523" height="416.973"/>
		</g>
	</mask>
	
		<path style="mask:url(#SVGID_00000139997943194875428260000009173552466246762157_);fill-rule:evenodd;clip-rule:evenodd;fill:#A4B4B5;" d="
		M3624.761,2916c-302.055-259.888-695.067-416.973-1124.762-416.973c-429.693,0-822.705,157.084-1124.761,416.973H3624.761z"/>
	<defs>
		
			<filter id="Adobe_OpacityMaskFilter_00000096057256317849160760000002204991648060380802_" filterUnits="userSpaceOnUse" x="637.763" y="1948.612" width="3724.472" height="967.388">
			<feColorMatrix  type="matrix" values="1 0 0 0 0  0 1 0 0 0  0 0 1 0 0  0 0 0 1 0"/>
		</filter>
	</defs>
	
		<mask maskUnits="userSpaceOnUse" x="637.763" y="1948.612" width="3724.472" height="967.388" id="SVGID_00000137826132378832176970000013267370582893884606_">
		<g style="filter:url(#Adobe_OpacityMaskFilter_00000096057256317849160760000002204991648060380802_);">
			
				<linearGradient id="SVGID_00000049196986641413062510000001595682680872672663_" gradientUnits="userSpaceOnUse" x1="-21.3275" y1="1647.2225" x2="-21.3275" y2="2707.4956" gradientTransform="matrix(1 0 0 1 2521.3269 0)">
				<stop  offset="0" style="stop-color:#FFFFFF"/>
				<stop  offset="1" style="stop-color:#000000"/>
			</linearGradient>
			
				<rect x="637.763" y="1948.612" style="fill:url(#SVGID_00000049196986641413062510000001595682680872672663_);" width="3724.472" height="967.388"/>
		</g>
	</mask>
	
		<path style="mask:url(#SVGID_00000137826132378832176970000013267370582893884606_);fill-rule:evenodd;clip-rule:evenodd;fill:#A4B4B5;" d="
		M1375.239,2916c302.055-259.888,695.068-416.973,1124.761-416.973c429.695,0,822.707,157.084,1124.762,416.973h737.474
		c-411.87-585.111-1092.419-967.388-1862.236-967.388S1049.635,2330.889,637.763,2916H1375.239z"/>
	<defs>
		
			<filter id="Adobe_OpacityMaskFilter_00000036955657144207851240000017872832245598694537_" filterUnits="userSpaceOnUse" x="0" y="1398.197" width="5000" height="1517.803">
			<feColorMatrix  type="matrix" values="1 0 0 0 0  0 1 0 0 0  0 0 1 0 0  0 0 0 1 0"/>
		</filter>
	</defs>
	
		<mask maskUnits="userSpaceOnUse" x="0" y="1398.197" width="5000" height="1517.803" id="SVGID_00000036213780437625524010000010965589175011785614_">
		<g style="filter:url(#Adobe_OpacityMaskFilter_00000036955657144207851240000017872832245598694537_);">
			
				<linearGradient id="SVGID_00000055679976132727437860000017449783401431671700_" gradientUnits="userSpaceOnUse" x1="103.0042" y1="1162.0808" x2="103.0042" y2="2432.2947" gradientTransform="matrix(1 0 0 1 2396.9958 0)">
				<stop  offset="0" style="stop-color:#FFFFFF"/>
				<stop  offset="1" style="stop-color:#000000"/>
			</linearGradient>
			
				<rect y="1398.197" style="fill:url(#SVGID_00000055679976132727437860000017449783401431671700_);" width="5000" height="1517.803"/>
		</g>
	</mask>
	
		<path style="mask:url(#SVGID_00000036213780437625524010000010965589175011785614_);fill-rule:evenodd;clip-rule:evenodd;fill:#A4B4B5;" d="
		M2499.999,1948.612c769.817,0,1450.366,382.276,1862.236,967.388H5000v-10.666
		c-473.942-896.355-1415.655-1507.137-2500.001-1507.137C1415.658,1398.197,473.941,2008.98,0,2905.334V2916h637.763
		C1049.635,2330.889,1730.182,1948.612,2499.999,1948.612"/>
	<defs>
		
			<filter id="Adobe_OpacityMaskFilter_00000181770144330824099590000015659117634701072535_" filterUnits="userSpaceOnUse" x="88.521" y="1328.562" width="4822.957" height="1421.467">
			<feColorMatrix  type="matrix" values="1 0 0 0 0  0 1 0 0 0  0 0 1 0 0  0 0 0 1 0"/>
		</filter>
	</defs>
	
		<mask maskUnits="userSpaceOnUse" x="88.521" y="1328.562" width="4822.957" height="1421.467" id="SVGID_00000007391507438007931040000003420650748680664746_">
		<g style="filter:url(#Adobe_OpacityMaskFilter_00000181770144330824099590000015659117634701072535_);">
			
				<linearGradient id="SVGID_00000150086726861865842770000000893151970608632196_" gradientUnits="userSpaceOnUse" x1="85.7464" y1="303.5168" x2="85.7464" y2="2262.6057" gradientTransform="matrix(1 0 0 1 2414.2529 -32.3498)">
				<stop  offset="0" style="stop-color:#FFFFFF"/>
				<stop  offset="1" style="stop-color:#000000"/>
			</linearGradient>
			
				<rect x="88.521" y="1328.562" style="fill:url(#SVGID_00000150086726861865842770000000893151970608632196_);" width="4822.957" height="1421.467"/>
		</g>
	</mask>
	
		<path style="mask:url(#SVGID_00000007391507438007931040000003420650748680664746_);fill-rule:evenodd;clip-rule:evenodd;fill:#FFFFFF;" d="
		M88.521,2750.029c496.817-810.861,1390.984-1351.832,2411.478-1351.832c1020.495,0,1914.661,540.971,2411.478,1351.832
		c-479.294-849.377-1379.715-1421.467-2411.478-1421.467C1468.237,1328.562,567.817,1900.652,88.521,2750.029"/>
	<defs>
		
			<filter id="Adobe_OpacityMaskFilter_00000163041843880995009530000005274509599600478622_" filterUnits="userSpaceOnUse" x="0" y="0" width="4999.999" height="935.355">
			<feColorMatrix  type="matrix" values="1 0 0 0 0  0 1 0 0 0  0 0 1 0 0  0 0 0 1 0"/>
		</filter>
	</defs>
	
		<mask maskUnits="userSpaceOnUse" x="0" y="0" width="4999.999" height="935.355" id="SVGID_00000144316611266512075870000013017722240418927773_">
		<g style="filter:url(#Adobe_OpacityMaskFilter_00000163041843880995009530000005274509599600478622_);">
			
				<linearGradient id="SVGID_00000065760052990405297760000018057902964948857009_" gradientUnits="userSpaceOnUse" x1="103.0029" y1="3642.5564" x2="103.0029" y2="386.062" gradientTransform="matrix(1 0 0 1 2396.9958 -386.0515)">
				<stop  offset="0" style="stop-color:#FFFFFF"/>
				<stop  offset="1" style="stop-color:#000000"/>
			</linearGradient>
			
				<rect y="0.001" style="fill:url(#SVGID_00000065760052990405297760000018057902964948857009_);" width="4999.998" height="935.355"/>
		</g>
	</mask>
	
		<path style="mask:url(#SVGID_00000144316611266512075870000013017722240418927773_);fill-rule:evenodd;clip-rule:evenodd;fill:#FFFFFF;" d="
		M0,0c562.636,566.992,1472.857,935.355,2499.999,935.355c1027.145,0,1937.365-368.364,2499.999-935.355C3333.322,0,1666.678,0,0,0"
		/>
	<defs>
		
			<filter id="Adobe_OpacityMaskFilter_00000168803907707737296470000003203488691950006194_" filterUnits="userSpaceOnUse" x="0" y="0" width="2626.649" height="851.391">
			<feColorMatrix  type="matrix" values="1 0 0 0 0  0 1 0 0 0  0 0 1 0 0  0 0 0 1 0"/>
		</filter>
	</defs>
	
		<mask maskUnits="userSpaceOnUse" x="0" y="0" width="2626.649" height="851.391" id="SVGID_00000054963047536797495950000005750945564369408952_">
		<g style="filter:url(#Adobe_OpacityMaskFilter_00000168803907707737296470000003203488691950006194_);">
			
				<linearGradient id="SVGID_00000121274760326959421810000007957893323625298066_" gradientUnits="userSpaceOnUse" x1="-1083.6719" y1="-315.361" x2="-1083.6719" y2="1597.1428" gradientTransform="matrix(1 0 0 1 2396.9958 -402.4171)">
				<stop  offset="0" style="stop-color:#FFFFFF"/>
				<stop  offset="1" style="stop-color:#000000"/>
			</linearGradient>
			<rect style="fill:url(#SVGID_00000121274760326959421810000007957893323625298066_);" width="2626.648" height="851.391"/>
		</g>
	</mask>
	
		<path style="mask:url(#SVGID_00000054963047536797495950000005750945564369408952_);fill-rule:evenodd;clip-rule:evenodd;fill:#FFFFFF;" d="
		M0,0v846.025c70.734,3.557,142.124,5.366,214.086,5.366c349.853,0,686.142-42.735,999.751-121.498
		C1774.689,589.037,2263.004,332.951,2626.649,0C1750.623,0,875.848,0,0,0"/>
	<defs>
		
			<filter id="Adobe_OpacityMaskFilter_00000129188536448904873070000016263297174516872366_" filterUnits="userSpaceOnUse" x="2373.35" y="0" width="2626.65" height="851.391">
			<feColorMatrix  type="matrix" values="1 0 0 0 0  0 1 0 0 0  0 0 1 0 0  0 0 0 1 0"/>
		</filter>
	</defs>
	
		<mask maskUnits="userSpaceOnUse" x="2373.35" y="0" width="2626.65" height="851.391" id="SVGID_00000061454732588818882840000014509626512390043794_">
		<g style="filter:url(#Adobe_OpacityMaskFilter_00000129188536448904873070000016263297174516872366_);">
			
				<linearGradient id="SVGID_00000081629749330172204360000014285546023727581062_" gradientUnits="userSpaceOnUse" x1="827.0286" y1="-315.3726" x2="826.9771" y2="1597.1311" gradientTransform="matrix(1 0 0 1 2859.677 -402.4171)">
				<stop  offset="0" style="stop-color:#FFFFFF"/>
				<stop  offset="1" style="stop-color:#000000"/>
			</linearGradient>
			
				<rect x="2373.35" style="fill:url(#SVGID_00000081629749330172204360000014285546023727581062_);" width="2626.65" height="851.391"/>
		</g>
	</mask>
	
		<path style="mask:url(#SVGID_00000061454732588818882840000014509626512390043794_);fill-rule:evenodd;clip-rule:evenodd;fill:#FFFFFF;" d="
		M5000,0v846.025c-70.735,3.557-142.124,5.366-214.085,5.366c-349.854,0-686.144-42.735-999.753-121.498
		C3225.311,589.037,2736.997,332.951,2373.35,0C3249.377,0,4124.153,0,5000,0"/>
</g>
</svg>
